<?xml version="1.0" standalone="no"?>
<!DOCTYPE svg PUBLIC "-//W3C//DTD SVG 20010904//EN"
 "http://www.w3.org/TR/2001/REC-SVG-20010904/DTD/svg10.dtd">
<svg version="1.0" xmlns="http://www.w3.org/2000/svg"
 width="700.000000pt" height="700.000000pt" viewBox="0 0 700.000000 700.000000"
 preserveAspectRatio="xMidYMid meet">
<metadata>
Created by potrace 1.14, written by Peter Selinger 2001-2017
</metadata>
<g transform="translate(0.000000,700.000000) scale(0.100000,-0.100000)"
fill="#000000" stroke="none">
<path d="M3091 6989 c-30 -5 -86 -27 -126 -49 -92 -51 -311 -108 -419 -109
-101 -2 -180 -48 -232 -136 -14 -24 -45 -60 -70 -80 -32 -27 -55 -59 -86 -123
-23 -48 -87 -153 -142 -234 -185 -272 -181 -261 -197 -438 -7 -73 -17 -130
-29 -155 -11 -22 -58 -83 -106 -135 -91 -100 -124 -122 -269 -180 -258 -103
-327 -179 -359 -400 -32 -227 -110 -497 -221 -765 -45 -108 -53 -185 -59 -577
-8 -457 -17 -548 -67 -665 -50 -115 -60 -149 -105 -353 -28 -130 -35 -177 -30
-224 5 -54 3 -63 -25 -109 -52 -85 -57 -136 -26 -269 15 -62 32 -139 38 -171
10 -57 15 -63 149 -203 97 -102 141 -154 146 -177 4 -18 15 -97 24 -177 16
-138 16 -147 -1 -181 -41 -83 -58 -193 -60 -380 -1 -120 1 -140 20 -177 81
-158 218 -201 651 -202 242 0 247 -1 388 -33 131 -31 145 -36 175 -69 63 -68
146 -93 267 -77 63 8 87 6 152 -11 69 -18 111 -20 400 -21 362 -1 385 -3 553
-49 116 -33 126 -34 320 -35 110 -1 273 -7 363 -15 129 -10 197 -10 320 -1 86
6 196 11 243 11 117 0 224 20 484 91 121 33 285 71 365 85 178 31 265 54 395
106 55 22 133 51 173 63 89 28 146 64 168 107 10 18 21 73 25 121 5 49 22 130
38 180 80 251 100 377 110 722 8 244 12 285 41 430 22 111 30 174 26 205 -15
114 -120 244 -288 357 -170 114 -253 208 -315 357 -19 45 -43 99 -54 122 -10
22 -19 46 -19 53 0 24 -102 194 -167 279 -84 110 -97 140 -112 244 -13 88 -5
229 19 348 14 66 5 324 -13 401 -9 36 -25 90 -36 120 -14 40 -21 86 -23 174
-4 136 -20 185 -102 299 -89 125 -105 154 -168 301 -79 183 -85 207 -93 370
-4 72 -13 166 -21 210 -8 44 -21 133 -29 197 -18 141 -34 211 -85 383 -21 72
-39 150 -39 175 0 72 -102 266 -172 329 -30 26 -63 53 -75 59 -11 6 -83 18
-160 27 -76 9 -191 24 -254 34 -63 11 -147 22 -186 26 -65 5 -349 -8 -449 -21
-22 -3 -57 -5 -78 -5 -21 1 -65 -6 -97 -15 -57 -16 -60 -16 -142 9 -98 30
-172 38 -247 26z m195 -255 c83 -26 87 -26 227 -16 78 6 167 15 197 21 30 5
132 13 225 16 149 6 186 5 300 -14 72 -12 183 -28 249 -36 83 -10 125 -20 138
-31 31 -29 98 -173 98 -212 0 -19 15 -87 34 -151 53 -178 73 -267 86 -371 6
-52 18 -130 26 -173 9 -43 19 -148 24 -235 10 -182 21 -231 96 -407 78 -183
107 -238 174 -330 89 -122 100 -151 100 -277 0 -91 4 -118 26 -175 14 -38 29
-92 34 -121 13 -73 13 -244 1 -322 -30 -191 -33 -281 -12 -402 23 -140 53
-206 150 -334 70 -93 117 -176 172 -304 132 -310 211 -413 438 -563 100 -67
177 -142 187 -184 4 -14 -4 -75 -16 -136 -38 -190 -41 -224 -50 -502 -9 -307
-22 -390 -95 -632 -26 -84 -45 -166 -45 -193 l0 -47 -97 -36 c-54 -19 -142
-51 -197 -71 -60 -22 -156 -46 -245 -62 -80 -14 -247 -52 -371 -84 -329 -87
-354 -92 -480 -95 -63 -2 -205 -7 -315 -11 -144 -5 -229 -3 -305 6 -58 8 -193
14 -300 15 -192 1 -196 2 -300 35 l-105 33 -385 7 c-329 5 -394 9 -445 24 -48
15 -81 17 -165 13 l-105 -6 -16 28 c-28 49 -150 91 -419 147 -19 4 -152 8
-295 8 -262 2 -368 12 -428 43 -27 13 -27 15 -27 106 1 116 21 226 54 297 30
65 32 95 11 280 -22 192 -40 270 -77 322 -16 24 -79 93 -138 153 -96 98 -108
115 -114 154 -4 24 -16 77 -28 117 l-22 74 34 67 c32 62 35 77 41 183 10 184
82 467 141 553 11 15 24 57 29 93 12 84 28 420 38 774 6 240 9 280 26 310 10
19 49 121 87 225 69 189 115 359 144 530 30 183 33 193 67 219 18 14 84 45
147 71 153 62 248 113 282 150 182 198 238 274 256 347 6 24 16 93 22 153 6
61 13 119 17 130 3 11 31 56 63 100 99 138 206 308 226 359 12 31 34 61 62 83
23 20 58 62 78 94 l35 59 72 0 c40 0 88 5 107 10 19 5 87 23 150 39 66 18 147
48 190 70 91 48 124 50 236 15z"/>
<path d="M3292 6319 c2 -7 23 -18 46 -25 52 -15 72 -30 72 -55 0 -36 22 -68
52 -74 24 -6 28 -10 21 -28 -4 -12 -7 -38 -8 -57 0 -34 2 -36 54 -53 30 -10
65 -27 79 -37 15 -12 40 -20 62 -20 50 0 133 -44 165 -86 48 -63 65 -134 65
-275 0 -158 -14 -196 -105 -289 -75 -77 -125 -166 -125 -222 0 -32 -7 -47 -32
-72 -18 -18 -40 -35 -48 -38 -8 -3 -12 -9 -7 -14 4 -4 34 -3 65 4 32 7 100 12
150 12 l93 0 20 35 c15 24 28 35 45 35 30 0 44 27 44 85 0 25 7 56 15 68 8 13
23 58 34 100 11 43 25 85 33 94 9 11 15 73 20 217 4 111 10 253 14 316 5 94 3
123 -10 154 -15 36 -18 38 -47 32 -24 -5 -38 -1 -59 18 -32 27 -96 38 -220 38
-60 0 -82 3 -93 16 -84 95 -85 95 -132 88 -35 -6 -50 -3 -72 13 -34 24 -198
41 -191 20z"/>
<path d="M3385 5956 c-104 -49 -121 -65 -106 -95 17 -30 14 -38 -24 -61 -19
-12 -35 -27 -35 -33 0 -7 -9 -18 -20 -25 -11 -7 -20 -18 -20 -25 0 -7 -18 -36
-40 -66 -39 -51 -40 -55 -40 -131 0 -66 3 -80 18 -84 9 -3 32 -40 52 -83 22
-50 51 -95 81 -125 59 -60 67 -93 30 -127 -28 -27 -76 -100 -70 -105 2 -2 20
-6 40 -9 34 -5 38 -3 58 34 22 38 24 39 75 39 31 0 58 5 64 13 16 20 9 100
-14 147 -12 25 -27 63 -34 85 -7 22 -20 51 -29 65 -26 40 -41 100 -41 167 0
51 3 63 18 67 10 3 30 30 45 59 15 28 37 64 49 79 17 22 19 32 11 50 -9 20 -5
29 23 60 31 34 37 68 13 68 -17 0 -9 22 16 42 68 53 -3 49 -120 -6z"/>
<path d="M3667 5750 c-21 -15 -53 -31 -71 -34 -23 -4 -50 -24 -85 -61 -41 -44
-51 -60 -51 -89 0 -19 -5 -47 -10 -62 -8 -21 -7 -32 7 -53 12 -19 18 -54 21
-138 5 -128 0 -123 113 -123 51 0 72 5 91 20 33 26 51 93 44 166 -19 213 -23
312 -13 347 15 53 0 62 -46 27z"/>
<path d="M3312 4798 c-7 -7 -12 -16 -12 -22 0 -5 -7 -17 -16 -27 -8 -9 -25
-46 -38 -82 -12 -35 -32 -77 -44 -92 -13 -16 -22 -42 -22 -63 0 -27 -9 -45
-39 -77 -22 -24 -44 -59 -50 -80 -5 -20 -25 -55 -44 -78 -19 -23 -55 -82 -81
-132 -29 -55 -63 -104 -88 -127 -45 -40 -68 -94 -68 -162 0 -42 -76 -212 -115
-256 -30 -34 -70 -109 -90 -170 -9 -27 -21 -50 -26 -50 -19 0 -90 -104 -101
-149 -8 -34 -26 -62 -69 -106 -39 -41 -61 -74 -68 -102 -7 -23 -31 -65 -56
-94 -25 -29 -45 -56 -45 -60 0 -3 -13 -23 -30 -44 -21 -27 -30 -49 -30 -76 0
-25 -8 -47 -24 -66 -13 -15 -31 -43 -40 -60 -9 -18 -29 -47 -45 -65 -16 -18
-45 -64 -65 -102 -28 -53 -37 -80 -35 -115 1 -57 -17 -225 -30 -269 -6 -18
-28 -62 -50 -97 -45 -70 -47 -80 -29 -122 17 -37 26 -43 73 -42 62 0 107 27
131 78 12 24 30 51 41 60 25 21 35 47 77 211 20 74 44 167 55 205 11 39 21 79
21 89 0 11 12 35 28 55 26 34 55 102 108 253 15 44 43 92 79 138 62 78 100
110 165 138 90 40 193 184 221 312 5 25 20 74 33 110 43 117 76 227 76 252 0
46 42 153 72 180 15 15 31 41 35 59 6 33 59 78 142 121 24 13 52 36 63 53 l18
30 0 -111 c0 -95 3 -115 19 -136 18 -22 20 -49 26 -339 15 -752 9 -1018 -28
-1119 -16 -45 -21 -87 -25 -226 -4 -189 0 -204 58 -204 16 0 31 -4 34 -9 5 -8
329 -5 354 4 6 2 12 20 12 39 0 19 4 37 9 40 13 8 20 110 22 321 2 201 -4 279
-29 385 -11 47 -17 162 -23 425 -11 454 -9 435 -41 481 -25 37 -27 47 -33 209
-3 94 -9 226 -13 293 l-7 124 -40 14 c-22 7 -69 14 -104 14 -61 0 -66 -2 -98
-36 -18 -20 -33 -39 -33 -43 0 -3 -8 -16 -18 -29 -18 -23 -18 -23 -14 18 2 22
8 40 12 40 4 0 15 18 24 41 9 22 39 70 66 106 55 73 64 104 58 198 -5 74 -22
100 -78 115 -21 6 -43 17 -50 25 -15 18 -32 19 -48 3z"/>
<path d="M3556 4694 c-16 -41 3 -161 36 -229 28 -58 58 -146 58 -170 0 -51 23
-96 73 -144 38 -37 58 -65 69 -102 14 -44 15 -50 2 -45 -15 6 -80 -30 -102
-56 -10 -12 -9 -21 3 -44 8 -16 15 -40 15 -54 0 -14 5 -41 11 -60 12 -38 30
-281 33 -450 1 -73 7 -114 17 -135 9 -16 19 -43 23 -59 4 -17 17 -44 29 -60
23 -33 38 -121 37 -212 0 -28 8 -93 20 -145 11 -51 20 -103 20 -115 0 -12 19
-60 42 -106 23 -46 55 -109 70 -141 21 -43 33 -88 44 -170 18 -139 41 -270 56
-322 12 -45 15 -84 5 -107 -8 -23 38 -51 72 -45 14 3 46 11 71 17 25 6 60 14
78 17 70 11 82 100 26 184 -66 99 -74 142 -73 401 0 193 2 209 13 165 7 -27
23 -61 34 -77 12 -16 26 -47 31 -70 11 -50 48 -91 117 -130 62 -36 76 -52 98
-112 13 -34 28 -53 54 -70 20 -12 39 -25 42 -30 10 -13 48 3 53 22 4 15 16 20
53 22 45 3 50 6 66 38 9 19 17 57 18 83 0 27 5 57 11 68 19 36 31 137 18 162
-6 12 -41 52 -77 90 -58 58 -71 67 -103 67 -42 0 -44 3 -80 135 -12 44 -28 93
-36 109 -29 56 -63 170 -63 209 0 25 -10 57 -26 84 -14 24 -30 71 -35 106 -15
94 -49 234 -75 307 -13 36 -29 87 -35 114 -8 32 -26 65 -55 97 -40 45 -48 65
-57 139 -1 8 -28 32 -60 53 -33 23 -57 46 -57 56 0 10 -12 28 -26 42 -69 64
-90 115 -125 304 -7 33 -20 72 -30 87 -16 22 -19 45 -19 150 0 83 -4 128 -12
136 -20 20 -62 14 -130 -18 -85 -40 -135 -40 -170 0 -29 33 -62 39 -72 14z
m332 -778 c73 -47 112 -104 112 -165 0 -16 7 -34 15 -41 47 -39 115 -200 115
-270 0 -20 10 -54 22 -75 85 -158 78 -129 78 -327 0 -171 1 -181 25 -229 21
-40 26 -68 30 -144 2 -52 2 -95 0 -95 -1 0 -8 37 -15 83 -6 45 -23 109 -37
142 -16 39 -25 76 -24 106 1 34 -3 50 -19 64 -11 10 -20 23 -20 29 0 5 -11 26
-25 45 -24 36 -24 37 -13 130 12 88 11 95 -8 129 -12 21 -24 54 -28 75 -5 27
-26 58 -72 110 -75 83 -124 176 -152 292 -23 92 -35 165 -27 165 3 0 22 -11
43 -24z"/>
<path d="M3182 3901 c-63 -6 -64 -7 -76 -42 -7 -20 -23 -53 -35 -73 -25 -40
-36 -110 -50 -336 -6 -92 -17 -169 -30 -210 -11 -36 -23 -83 -26 -105 -5 -30
-18 -50 -51 -80 -34 -31 -49 -55 -65 -105 -12 -36 -37 -96 -55 -134 -19 -37
-34 -79 -34 -92 0 -14 -8 -37 -17 -51 -15 -23 -18 -46 -15 -145 2 -101 0 -125
-18 -164 -11 -26 -20 -59 -20 -73 0 -30 -48 -179 -73 -226 -8 -17 -36 -50 -61
-74 -25 -24 -48 -57 -51 -73 -4 -16 -17 -41 -30 -56 -19 -22 -24 -42 -26 -95
-3 -80 11 -96 81 -97 25 0 67 -7 94 -15 73 -22 152 -20 184 6 68 52 125 106
137 129 7 14 15 49 19 79 4 30 16 91 27 135 13 58 19 117 19 205 0 127 7 167
42 234 23 45 48 136 48 174 0 14 11 45 25 69 14 23 34 80 44 126 11 45 36 130
56 187 19 58 35 120 35 139 0 18 5 42 10 52 14 25 21 143 19 310 -1 114 2 145
20 195 13 36 21 84 21 122 0 59 -2 63 -30 78 -16 8 -35 14 -42 13 -7 -1 -42
-4 -76 -7z"/>
<path d="M3435 1944 c-88 -20 -147 -38 -185 -56 -25 -12 -56 -26 -69 -32 -16
-7 -35 -33 -53 -73 -25 -56 -78 -113 -105 -113 -11 0 -66 -67 -76 -92 -3 -10
-11 -18 -16 -18 -5 0 -15 -16 -21 -35 -6 -19 -41 -65 -79 -103 -88 -88 -97
-104 -76 -136 9 -13 25 -26 36 -29 12 -3 22 -17 25 -36 8 -40 84 -111 119
-111 15 0 45 -11 68 -24 23 -13 60 -27 82 -31 22 -3 75 -24 117 -46 46 -23 92
-39 112 -39 27 0 44 -9 73 -38 21 -20 55 -48 76 -62 23 -15 40 -35 44 -52 3
-15 14 -35 24 -44 18 -16 20 -16 42 4 13 12 30 22 38 22 9 0 28 14 45 31 16
17 46 42 66 55 21 13 55 46 75 73 21 27 47 52 59 55 26 7 131 70 158 95 12 10
35 26 53 35 57 29 63 47 63 190 0 185 -16 205 -188 231 -34 6 -48 14 -62 38
-24 39 -97 97 -122 97 -10 0 -22 8 -25 18 -4 9 -17 28 -30 42 -44 47 -58 65
-87 107 -15 23 -39 49 -52 58 -25 16 -96 27 -129 19z"/>
<path d="M4706 1905 c-13 -14 -27 -25 -32 -25 -5 -1 -40 -32 -79 -70 -38 -39
-77 -73 -87 -76 -9 -3 -20 -14 -23 -24 -8 -24 -59 -55 -105 -64 -43 -8 -80
-42 -80 -73 0 -14 -15 -39 -35 -60 -19 -20 -35 -41 -35 -47 0 -6 -10 -20 -21
-30 -18 -15 -21 -25 -15 -63 7 -55 20 -73 52 -73 15 0 25 -8 30 -22 6 -21 34
-54 101 -121 90 -90 93 -92 260 -176 46 -23 90 -52 98 -65 25 -38 230 -90 262
-67 23 16 54 74 51 95 -2 16 7 31 29 50 31 26 73 95 73 120 0 32 41 65 97 77
35 8 74 26 102 48 25 19 60 42 76 50 17 9 51 31 78 50 63 46 63 65 -2 191 -11
21 -109 71 -161 81 -25 5 -63 22 -85 38 -22 15 -51 32 -65 37 -60 22 -129 70
-135 94 -8 30 -33 60 -50 60 -7 0 -15 7 -19 15 -3 8 -20 24 -38 35 -27 17 -43
19 -89 14 -41 -5 -64 -2 -87 10 -40 20 -39 21 -66 -9z"/>
<path d="M1919 1725 c-25 -13 -59 -39 -76 -58 -16 -18 -54 -49 -85 -68 -32
-19 -66 -50 -80 -72 -12 -21 -38 -46 -55 -57 -18 -11 -33 -28 -33 -38 0 -10
-18 -36 -41 -57 -46 -45 -73 -90 -63 -106 3 -6 -2 -23 -13 -37 -12 -17 -20
-46 -22 -78 -2 -55 7 -63 65 -64 26 0 34 -17 34 -71 0 -77 77 -141 240 -200
58 -21 163 -81 203 -116 59 -52 109 -45 142 20 6 12 22 25 35 29 14 4 45 13
70 20 36 11 46 18 48 38 2 19 16 32 57 54 47 24 60 38 91 95 82 150 104 208
104 278 0 39 -5 50 -39 84 -21 22 -48 39 -58 39 -11 0 -68 16 -126 35 -58 19
-113 35 -121 35 -8 0 -30 13 -48 28 -18 15 -44 35 -58 44 -31 19 -62 109 -58
167 2 43 -22 81 -51 81 -9 -1 -37 -12 -62 -25z"/>
</g>
</svg>
